#!OML:ASF I:\Actors\actors\Patient Classification 2\Patient 1\Session 1\actor1.ASF
:FULLY-SPECIFIED
:DEGREES
549
root -0.791188 18.0712 5.19468 -6.56409 5.49298 -3.24639
lowerback 16.1792 -1.25799 3.17958
upperback 6.02905 -1.05955 2.28243
thorax -2.66441 -0.509249 0.792139
lowerneck -2.53782 -14.4772 -15.7191
upperneck 5.31017 -20.3201 18.9849
head 5.63127 -9.81369 6.71384
rclavicle 1.799e-014 -2.54444e-014
rhumerus 27.9398 8.60403 -71.0173
rradius 89.2428
rwrist 15.5427
rhand -39.2761 -34.9595
rfingers 7.12502
rthumb -12.2699 -64.5796
lclavicle 1.799e-014 -2.54444e-014
lhumerus 28.5421 -21.0567 78.1861
lradius 87.2079
lwrist -3.73387
lhand -22.0802 -39.128
lfingers 7.12502
lthumb 4.33137 -9.19228
rfemur 1.54348 -3.67185 16.6896
rtibia 26.8642
rfoot -24.9172 -5.39505
rtoes -20.296
lfemur -10.52 -2.76661 -10.1401
ltibia 39.2132
lfoot -22.0408 0.0389931
ltoes -58.9397
550
root -0.794976 18.0601 5.18234 -6.43366 5.71736 -3.41013
lowerback 16.5851 -1.33104 3.36939
upperback 5.91397 -1.09651 2.34899
thorax -3.00253 -0.529621 0.772556
lowerneck -1.27571 -15.4005 -16.9914
upperneck 6.37329 -21.9253 19.4016
head 6.2241 -10.6451 6.83009
rclavicle 2.5842e-014 -4.57205e-014
rhumerus 27.693 7.53973 -71.6374
rradius 92.9545
rwrist 17.1129
rhand -42.521 -34.9332
rfingers 7.12502
rthumb -15.397 -64.3399
lclavicle 2.5842e-014 -4.57205e-014
lhumerus 28.9782 -20.6633 77.595
lradius 89.1742
lwrist -5.71594
lhand -22.4825 -40.8426
lfingers 7.12502
lthumb 3.94287 -10.8993
rfemur 1.18112 -3.90691 16.8569
rtibia 27.2421
rfoot -25.0709 -5.34679
rtoes -20.4865
lfemur -11.0309 -2.96703 -9.9765
ltibia 39.6771
lfoot -22.188 0.07868
ltoes -59.0035
551
root -0.797543 18.0401 5.16666 -6.19319 5.95085 -3.57991
lowerback 16.7158 -1.42948 3.46863
upperback 5.90703 -1.19304 2.53969
thorax -3.07721 -0.5785 0.939263
lowerneck 0.097736 -16.2731 -18.4732
upperneck 7.38168 -23.4962 19.7614
head 6.82858 -11.4776 6.95017
rclavicle -3.20043e-014 3.18055e-015
rhumerus 27.8587 6.44753 -72.1107
rradius 96.5523
rwrist 18.8645
rhand -44.7537 -35.0022
rfingers 7.12502
rthumb -17.5467 -64.2303
lclavicle -3.20043e-014 3.18055e-015
lhumerus 29.663 -19.9332 77.099
lradius 91.2008
lwrist -7.14176
lhand -22.7138 -42.4092
lfingers 7.12502
lthumb 3.71951 -12.4619
rfemur 0.520487 -4.23743 17.0153
rtibia 27.9518
rfoot -25.2945 -5.21714
rtoes -20.8261
lfemur -11.8121 -3.0734 -9.78791
ltibia 40.3748
lfoot -22.3463 0.0223154
ltoes -59.0718
552
root -0.793039 18.0082 5.14332 -5.86986 6.04193 -3.75716
lowerback 16.7471 -1.48905 3.67038
upperback 5.96685 -1.23162 2.70547
thorax -3.03002 -0.596391 1.00777
lowerneck 1.74384 -17.079 -19.8279
upperneck 8.02126 -25.0201 20.2125
head 7.29703 -12.3118 7.09979
rclavicle 9.0447e-015 3.97569e-015
rhumerus 28.4446 5.00691 -72.4049
rradius 100.013
rwrist 20.3967
rhand -41.254 -37.5709
rfingers 7.12502
rthumb -14.1763 -67.0672
lclavicle 9.0447e-015 3.97569e-015
lhumerus 30.5283 -19.156 76.49
lradius 93.328
lwrist -8.13516
lhand -22.8452 -43.6488
lfingers 7.12502
lthumb 3.59261 -13.6993
rfemur -0.424632 -4.58546 17.139
rtibia 28.9379
rfoot -25.4861 -4.88018
rtoes -20.9855
lfemur -12.794 -3.04309 -9.60407
ltibia 41.2661
lfoot -22.5443 0.0037001
ltoes -59.1633
553
root -0.782326 17.9675 5.11041 -5.53758 6.00391 -3.87855
lowerback 16.8708 -1.48563 3.97232
upperback 6.07301 -1.17344 2.74824
thorax -2.98556 -0.564128 0.873168
lowerneck 3.54369 -17.864 -20.8305
upperneck 8.35961 -26.5449 20.7348
head 7.64196 -13.1562 7.23118
rclavicle 1.33186e-014 -6.36111e-015
rhumerus 29.4197 3.10417 -72.7456
rradius 103.179
rwrist 21.5783
rhand -47.1294 -37.6329
rfingers 7.12502
rthumb -19.8316 -66.6411
lclavicle 1.33186e-014 -6.36111e-015
lhumerus 31.5152 -18.5006 75.6377
lradius 95.5571
lwrist -8.78032
lhand -23.1084 -44.4417
lfingers 7.12502
lthumb 3.33839 -14.4881
rfemur -1.53086 -4.93998 17.1573
rtibia 30.1084
rfoot -25.6089 -4.4132
rtoes -21.267
lfemur -13.8323 -3.08792 -9.5192
ltibia 42.2687
lfoot -22.8504 0.11105
ltoes -59.1037
